<svg xmlns="http://www.w3.org/2000/svg"{% if include.class %} class="{{ include.class }}"{% endif %}{% if include.width %} width="{{ include.width }}"{% endif %}{% if include.height %} height="{{ include.height }}"{% endif %} viewBox="0 0 73 94">
    <g fill="none" fill-rule="evenodd">
        <path stroke="#DCDCDC" stroke-linecap="round" stroke-linejoin="round" d="M.688 78.592s11.786 5.265 34.362 5.265c28.139 0 36.823 2.28 36.823 2.28"/>
        <path fill="#FFF" d="M52.566 20.985L70.234 1.057a1.092 1.092 0 0 1 1.73 1.324l-9.802 14.936a3.522 3.522 0 0 1-3.099 1.584 3.52 3.52 0 0 0-2.789 1.18l-1.06 1.197"/>
        <path stroke="#333" stroke-linecap="round" stroke-linejoin="round" d="M52.566 20.985L70.234 1.057a1.092 1.092 0 0 1 1.73 1.324l-9.802 14.936a3.522 3.522 0 0 1-3.099 1.584 3.52 3.52 0 0 0-2.789 1.18l-1.06 1.197"/>
        <path fill="#cf126d" d="M47.298 93.852l7.369-.038-3.011-67.885-2.207.014z"/>
        <path fill="#FFF" d="M54.636 25.703l8.427 25.27a1.134 1.134 0 0 1-2.09.871l-8.349-16.583a3.656 3.656 0 0 1 .185-3.612c.593-.93.735-2.077.385-3.123l-.863-2.59"/>
        <path stroke="#333" stroke-linecap="round" stroke-linejoin="round" d="M54.636 25.703l8.427 25.27a1.134 1.134 0 0 1-2.09.871l-8.349-16.583a3.656 3.656 0 0 1 .185-3.612c.593-.93.735-2.077.385-3.123l-.863-2.59"/>
        <path fill="#cf126d" d="M53.692 25.902a2.405 2.405 0 0 0-.029-4.81l-5.392.035a2.405 2.405 0 1 0 .03 4.809l5.391-.034z"/>
        <path fill="#FFF" d="M49.981 24.666L22.865 19.12a1.134 1.134 0 0 1 .293-2.245l18.536 1.06a3.657 3.657 0 0 1 3.035 1.966 3.661 3.661 0 0 0 2.513 1.897l3.19.653"/>
        <path stroke="#333" stroke-linecap="round" stroke-linejoin="round" d="M49.981 24.666L22.865 19.12a1.134 1.134 0 0 1 .293-2.245l18.536 1.06a3.657 3.657 0 0 1 3.035 1.966 3.661 3.661 0 0 0 2.513 1.897l3.19.653"/>
        <path fill="#cf126d" d="M16.099 87.373l4.848-.026-1.98-44.465-1.454.01z"/>
        <path stroke="#333" stroke-linecap="round" stroke-linejoin="round" d="M20.658 40.293l14.884 1.03a.641.641 0 0 1 .006 1.279l-10.457.79a2.063 2.063 0 0 1-1.846-.873c-.358-.51-1.639-.916-2.26-.96"/>
        <path fill="#cf126d" d="M19.439 42.864a1.581 1.581 0 1 0-.021-3.163l-3.547.021a1.582 1.582 0 0 0 .02 3.164l3.548-.022z"/>
        <g>
            <path fill="#FFF" d="M17.289 41.793l-1.197 1.778a2.407 2.407 0 0 1-1.782 1.053 2.404 2.404 0 0 0-1.957 1.352L7.06 56.983a.747.747 0 0 0 1.293.741l10.337-15.355"/>
            <path stroke="#333" stroke-linecap="round" stroke-linejoin="round" d="M17.289 41.793l-1.197 1.778a2.407 2.407 0 0 1-1.782 1.053 2.404 2.404 0 0 0-1.957 1.352L7.06 56.983a.747.747 0 0 0 1.293.741l10.337-15.355"/>
        </g>
        <path stroke="#333" stroke-linecap="round" stroke-linejoin="round" d="M16.458 39.719L8.516 23.466a.79.79 0 0 1 1.362-.792l7.278 10.662a2.54 2.54 0 0 1 .205 2.506c-.323.695-.315 1.5.021 2.188l.77 1.577"/>
    </g>
</svg>
